<?xml version="1.0" encoding="utf-8"?>
<!-- Generator: Adobe Illustrator 25.4.1, SVG Export Plug-In . SVG Version: 6.00 Build 0)  -->
<svg version="1.1" id="Layer_1" xmlns="http://www.w3.org/2000/svg" xmlns:xlink="http://www.w3.org/1999/xlink" x="0px" y="0px"
	 viewBox="0 0 682.75 282.87" style="enable-background:new 0 0 682.75 282.87;" xml:space="preserve">
<style type="text/css">
	.st0{fill:#D34F00;}
	.st1{display:none;fill:#FFFFFF;}
	.st2{fill:#E9E9EE;}
</style>
<path class="st0" d="M91.93,36.66l-2.3,185.67l186.13-20.68l2.3-187.51L91.93,36.66z M117.67,193.84L100.2,44.01
	c61.59,0.46,61.59,0.46,61.59,0.46l15.16,149.36H117.67z M187.52,193.84V44.01h62.51l16.08,149.82H187.52z"/>
<g>
	<g>
		<polygon class="st1" points="245.21,268.73 37.08,246.2 34.14,40.82 85.29,46.35 83.83,74.97 63.41,72.95 65.52,220.31 
			216.03,236.6 214.27,89.24 109.38,77.76 108.6,49.14 242.76,63.35 		"/>
	</g>
	<g>
		<polygon class="st2" points="239.29,262.2 42.86,240.94 40.08,47.34 80.43,52.16 80.23,69.16 57.46,66.42 59.74,225.56 
			221.96,243.12 220.06,83.98 112.71,71.95 110.67,54.95 236.97,68.6 		"/>
	</g>
</g>
<g>
	<path class="st0" d="M329.44,51.92h11.72l14.65,44.09l14.79-44.09h11.72l10.6,63.21h-11.64l-6.78-39.92l-13.43,39.92h-10.6
		l-13.31-39.92l-6.94,39.92h-11.73L329.44,51.92z"/>
	<path class="st0" d="M423.18,67.18c4.41,0,8.56,1.1,12.44,3.31c3.88,2.21,6.91,5.2,9.09,8.98c2.18,3.78,3.27,7.86,3.27,12.25
		c0,4.41-1.1,8.54-3.29,12.38c-2.19,3.84-5.18,6.84-8.96,9c-3.78,2.16-7.95,3.24-12.51,3.24c-6.7,0-12.43-2.38-17.17-7.16
		c-4.74-4.77-7.11-10.56-7.11-17.38c0-7.31,2.68-13.39,8.04-18.26C411.67,69.3,417.07,67.18,423.18,67.18z M423.37,78.22
		c-3.64,0-6.68,1.27-9.1,3.8c-2.43,2.54-3.64,5.78-3.64,9.73c0,4.07,1.2,7.36,3.59,9.88c2.4,2.52,5.43,3.78,9.1,3.78
		s6.73-1.27,9.17-3.82c2.44-2.55,3.66-5.83,3.66-9.84c0-4.01-1.2-7.27-3.59-9.78C430.16,79.48,427.1,78.22,423.37,78.22z"/>
	<path class="st0" d="M492.06,50.33h11.73v64.8h-11.73v-4.94c-2.29,2.18-4.59,3.75-6.89,4.71c-2.3,0.96-4.8,1.44-7.49,1.44
		c-6.04,0-11.26-2.34-15.67-7.03c-4.41-4.68-6.61-10.51-6.61-17.47c0-7.22,2.13-13.14,6.39-17.75c4.26-4.61,9.44-6.92,15.54-6.92
		c2.8,0,5.44,0.53,7.9,1.59s4.74,2.65,6.82,4.77V50.33z M479.73,78.01c-3.63,0-6.64,1.28-9.04,3.85c-2.4,2.56-3.6,5.85-3.6,9.86
		c0,4.04,1.22,7.36,3.66,9.97c2.44,2.61,5.45,3.91,9.02,3.91c3.68,0,6.74-1.28,9.17-3.85c2.43-2.56,3.64-5.92,3.64-10.08
		c0-4.07-1.21-7.36-3.64-9.88C486.51,79.27,483.44,78.01,479.73,78.01z"/>
	<path class="st0" d="M562.5,95.15h-37.69c0.54,3.32,2,5.97,4.36,7.93c2.36,1.96,5.38,2.94,9.05,2.94c4.38,0,8.15-1.53,11.3-4.6
		l9.88,4.64c-2.46,3.5-5.41,6.08-8.85,7.76c-3.44,1.68-7.52,2.51-12.25,2.51c-7.33,0-13.31-2.31-17.92-6.94
		c-4.61-4.63-6.92-10.42-6.92-17.38c0-7.13,2.3-13.06,6.9-17.77c4.6-4.71,10.36-7.07,17.3-7.07c7.36,0,13.35,2.36,17.96,7.07
		c4.61,4.71,6.92,10.94,6.92,18.67L562.5,95.15z M550.76,85.92c-0.78-2.61-2.3-4.73-4.59-6.36c-2.28-1.63-4.93-2.45-7.94-2.45
		c-3.27,0-6.14,0.92-8.61,2.75c-1.55,1.15-2.98,3.17-4.3,6.06H550.76z"/>
	<path class="st0" d="M569.24,68.38h10.06v5.89c1.09-2.32,2.54-4.08,4.34-5.29c1.8-1.2,3.78-1.8,5.93-1.8c1.52,0,3.11,0.4,4.77,1.2
		l-3.65,10.1c-1.37-0.69-2.51-1.03-3.39-1.03c-1.81,0-3.33,1.12-4.58,3.35c-1.25,2.23-1.87,6.62-1.87,13.15l0.04,2.28v18.91h-11.65
		V68.38z"/>
	<path class="st0" d="M600.14,68.38h11.73v4.79c2.66-2.24,5.07-3.8,7.23-4.68c2.16-0.88,4.37-1.32,6.63-1.32
		c4.63,0,8.57,1.62,11.8,4.86c2.72,2.75,4.08,6.82,4.08,12.2v30.9h-11.6V94.66c0-5.58-0.25-9.29-0.75-11.12
		c-0.5-1.83-1.37-3.23-2.62-4.19c-1.24-0.96-2.78-1.44-4.61-1.44c-2.37,0-4.41,0.79-6.11,2.38c-1.7,1.59-2.88,3.79-3.54,6.59
		c-0.34,1.46-0.52,4.62-0.52,9.49v18.76h-11.73V68.38z"/>
	<path class="st2" d="M323.35,157.53h34.51v11.77H335.3v11.43h22.56v11.56H335.3v16.63h22.56v11.82h-34.51V157.53z"/>
	<path class="st2" d="M367.78,173.99h11.73v4.79c2.66-2.24,5.07-3.8,7.23-4.68c2.16-0.88,4.37-1.32,6.63-1.32
		c4.63,0,8.57,1.62,11.8,4.86c2.72,2.75,4.08,6.82,4.08,12.2v30.9h-11.6v-20.48c0-5.58-0.25-9.28-0.75-11.12
		c-0.5-1.83-1.37-3.23-2.62-4.19c-1.24-0.96-2.78-1.44-4.61-1.44c-2.37,0-4.41,0.79-6.11,2.38c-1.7,1.59-2.88,3.79-3.54,6.59
		c-0.34,1.46-0.52,4.62-0.52,9.49v18.76h-11.73V173.99z"/>
	<path class="st2" d="M415.59,173.99h11.95l11.81,27.59l11.79-27.59h11.89l-19.9,46.76h-7.61L415.59,173.99z"/>
	<path class="st2" d="M474.47,154.74c2.06,0,3.82,0.75,5.29,2.23c1.47,1.49,2.21,3.3,2.21,5.41c0,2.09-0.73,3.88-2.19,5.35
		c-1.46,1.48-3.2,2.21-5.23,2.21c-2.08,0-3.86-0.75-5.33-2.26c-1.47-1.5-2.21-3.33-2.21-5.48c0-2.06,0.73-3.82,2.18-5.29
		C470.65,155.47,472.41,154.74,474.47,154.74z M468.6,173.99h11.73v46.76H468.6V173.99z"/>
	<path class="st2" d="M519.61,180.53l-7.26,7.26c-2.95-2.92-5.63-4.38-8.04-4.38c-1.32,0-2.35,0.28-3.09,0.84
		c-0.75,0.56-1.12,1.25-1.12,2.08c0,0.63,0.24,1.21,0.71,1.74c0.47,0.53,1.64,1.25,3.5,2.17l4.3,2.15c4.53,2.23,7.63,4.51,9.33,6.83
		c1.69,2.32,2.54,5.04,2.54,8.17c0,4.15-1.53,7.62-4.58,10.4c-3.05,2.78-7.14,4.17-12.27,4.17c-6.82,0-12.26-2.66-16.33-7.99
		l7.22-7.86c1.37,1.6,2.99,2.9,4.83,3.89c1.85,0.99,3.49,1.48,4.92,1.48c1.55,0,2.79-0.37,3.74-1.12c0.95-0.75,1.42-1.6,1.42-2.58
		c0-1.81-1.71-3.57-5.11-5.29l-3.95-1.98c-7.56-3.81-11.34-8.58-11.34-14.31c0-3.7,1.42-6.85,4.28-9.48
		c2.85-2.62,6.5-3.93,10.94-3.93c3.04,0,5.89,0.67,8.57,2C515.48,176.12,517.75,178.03,519.61,180.53z"/>
	<path class="st2" d="M534.28,154.74c2.06,0,3.82,0.75,5.29,2.23c1.47,1.49,2.21,3.3,2.21,5.41c0,2.09-0.73,3.88-2.19,5.35
		c-1.46,1.48-3.2,2.21-5.23,2.21c-2.08,0-3.86-0.75-5.33-2.26c-1.47-1.5-2.21-3.33-2.21-5.48c0-2.06,0.73-3.82,2.18-5.29
		C530.47,155.47,532.23,154.74,534.28,154.74z M528.42,173.99h11.73v46.76h-11.73V173.99z"/>
	<path class="st2" d="M572.77,172.79c4.41,0,8.56,1.1,12.44,3.31s6.91,5.2,9.09,8.98c2.18,3.78,3.27,7.86,3.27,12.25
		c0,4.41-1.1,8.54-3.29,12.38c-2.19,3.84-5.18,6.84-8.96,9c-3.78,2.16-7.95,3.24-12.51,3.24c-6.7,0-12.43-2.39-17.17-7.16
		c-4.74-4.77-7.11-10.56-7.11-17.38c0-7.31,2.68-13.39,8.04-18.26C561.26,174.91,566.66,172.79,572.77,172.79z M572.96,183.83
		c-3.64,0-6.68,1.27-9.1,3.8c-2.43,2.54-3.64,5.78-3.64,9.73c0,4.07,1.2,7.36,3.59,9.88c2.4,2.52,5.43,3.78,9.1,3.78
		c3.67,0,6.73-1.27,9.17-3.82c2.44-2.55,3.66-5.83,3.66-9.84c0-4.01-1.2-7.27-3.59-9.78C579.75,185.09,576.69,183.83,572.96,183.83z
		"/>
	<path class="st2" d="M607.14,173.99h11.73v4.79c2.66-2.24,5.07-3.8,7.23-4.68c2.16-0.88,4.37-1.32,6.63-1.32
		c4.63,0,8.57,1.62,11.8,4.86c2.72,2.75,4.08,6.82,4.08,12.2v30.9h-11.6v-20.48c0-5.58-0.25-9.28-0.75-11.12
		c-0.5-1.83-1.37-3.23-2.62-4.19c-1.24-0.96-2.78-1.44-4.61-1.44c-2.37,0-4.41,0.79-6.11,2.38c-1.7,1.59-2.88,3.79-3.54,6.59
		c-0.34,1.46-0.52,4.62-0.52,9.49v18.76h-11.73V173.99z"/>
</g>
</svg>
