<svg width="165" height="64" viewBox="0 0 165 64" fill="none" xmlns="http://www.w3.org/2000/svg">
<path d="M38.7 17.125L24.2999 31.625H32.5L41 23.125V37.325H12V35.625L22.4 25.225L18.2999 21.125L6.19995 33.225V43.125H46.6V17.125H38.7ZM6.29995 5.625V25.125L12.1 19.325V11.325H16.7L22.5 17.125L26.6 21.225L28.6 19.225L36.4 11.425H41H44.6H46.7999V5.625H33.9L26.4 13.125L19 5.625H6.29995Z" fill="#D34F00"/>
<path d="M70.3269 22.225V12.425L65.5269 20.525H63.8269L58.9269 12.625V22.225H55.3269V5.82495H58.4269L64.5269 16.025L70.5269 5.82495H73.6269V22.225H70.3269Z" fill="#E9E9EE"/>
<path d="M87.327 18.725H79.727L78.327 22.225H74.427L81.727 5.82495H85.427L92.727 22.225H88.727L87.327 18.725ZM86.127 15.825L83.527 9.52495L80.927 15.825H86.127Z" fill="#E9E9EE"/>
<path d="M101.227 12.925H107.627V20.325C106.627 21.125 105.627 21.625 104.527 21.925C103.327 22.325 102.127 22.525 100.927 22.525C99.4268 22.525 97.8268 22.125 96.4268 21.425C95.1268 20.725 94.0268 19.725 93.2268 18.425C91.7268 15.725 91.7268 12.425 93.2268 9.725C94.0268 8.425 95.1268 7.425 96.4268 6.725C97.8268 6.025 99.4268 5.625 101.027 5.625C102.327 5.625 103.727 5.825 104.927 6.325C106.027 6.825 107.027 7.525 107.827 8.425L105.427 10.625C104.327 9.425 102.827 8.725 101.227 8.825C100.227 8.825 99.3268 9.025 98.4268 9.525C97.6268 9.825 97.0268 10.525 96.5268 11.325C95.6268 13.025 95.6268 15.025 96.5268 16.825C97.0268 17.525 97.6268 18.125 98.4268 18.625C99.2268 19.125 100.227 19.325 101.127 19.325C102.127 19.325 103.127 19.125 104.027 18.625V16.425H101.227V12.925Z" fill="#E9E9EE"/>
<path d="M109.927 5.82495H113.727V22.225H109.927V5.82495Z" fill="#E9E9EE"/>
<path d="M119.727 21.425C118.427 20.725 117.327 19.725 116.527 18.425C115.027 15.725 115.027 12.425 116.527 9.725C117.327 8.425 118.427 7.425 119.727 6.725C121.127 6.025 122.727 5.625 124.227 5.625C125.527 5.625 126.827 5.825 128.027 6.425C129.127 6.925 130.127 7.625 130.927 8.625L128.527 10.825C127.527 9.625 126.027 8.925 124.427 8.925C123.527 8.925 122.527 9.125 121.727 9.625C120.927 10.025 120.327 10.725 119.827 11.525C118.927 13.225 118.927 15.225 119.827 16.925C120.227 17.725 120.927 18.325 121.727 18.825C122.527 19.325 123.527 19.525 124.427 19.525C126.027 19.525 127.527 18.825 128.527 17.625L130.927 19.825C130.127 20.725 129.127 21.525 128.027 22.025C126.827 22.525 125.527 22.825 124.127 22.825C122.727 22.525 121.127 22.125 119.727 21.425Z" fill="#E9E9EE"/>
<path d="M138.327 15.825L136.127 18.125V22.225H132.327V5.82495H136.127V13.425L143.327 5.82495H147.527L140.827 13.125L148.027 22.225H143.627L138.327 15.825Z" fill="#E9E9EE"/>
<path d="M70.437 26.4712V42.8712H66.637V36.1712H59.237V42.8712H55.437V26.4712H59.237V32.9712H66.637V26.4712H70.437Z" fill="#D34F00"/>
<path d="M76.4371 42.0711C75.1371 41.3711 74.0371 40.3711 73.2371 39.0711C71.7371 36.3711 71.7371 33.0711 73.2371 30.3711C74.0371 29.0711 75.1371 28.0711 76.4371 27.3711C79.3371 25.8711 82.7371 25.8711 85.6371 27.3711C89.7371 29.5711 91.2371 34.5711 89.0371 38.6711C88.2371 40.1711 87.0371 41.3711 85.6371 42.0711C82.7371 43.4711 79.3371 43.4711 76.4371 42.0711ZM83.6371 39.2711C84.4371 38.8711 85.0371 38.1711 85.4371 37.3711C86.3371 35.6711 86.3371 33.6711 85.4371 31.9711C85.0371 31.1711 84.3371 30.5711 83.6371 30.0711C82.0371 29.1711 80.0371 29.1711 78.4371 30.0711C77.6371 30.4711 77.0371 31.1711 76.6371 31.9711C75.7371 33.6711 75.7371 35.6711 76.6371 37.3711C77.0371 38.1711 77.7371 38.7711 78.4371 39.2711C80.0371 40.0711 82.0371 40.0711 83.6371 39.2711Z" fill="#D34F00"/>
<path d="M106.637 42.8711V33.0711L101.737 41.0711H100.037L95.237 33.1711V42.7711H91.637V26.3711H94.837L100.937 36.6711L106.937 26.4711H110.037V42.8711H106.637Z" fill="#D34F00"/>
<path d="M125.537 39.7711V42.7711H112.837V26.3711H125.237V29.3711H116.637V32.9711H124.237V35.9711H116.637V39.7711H125.537Z" fill="#D34F00"/>
<path d="M17.4 49.2L15 56.4H13.6L11.8 51.0999L9.99995 56.4H8.59995L6.19995 49.2H7.59995L9.39995 54.7L11.3 49.2H12.5L14.3 54.7L16.1 49.2H17.4Z" fill="#E9E9EE"/>
<path d="M23.9999 53.2999V56.3999H22.6999V53.3999C22.6999 52.3999 22.1999 51.9999 21.3999 51.9999C20.4999 51.9999 19.8999 52.5999 19.8999 53.6999V56.4999H18.5999V48.8999H19.8999V51.6999C20.2999 51.1999 20.9999 50.9999 21.6999 50.9999C22.9999 50.8999 23.9999 51.5999 23.9999 53.2999Z" fill="#E9E9EE"/>
<path d="M30.8 54.0999H26.5C26.7 54.8999 27.3 55.3999 28.3 55.3999C28.9 55.3999 29.4 55.1999 29.8 54.7999L30.5 55.5999C30 56.1999 29.2 56.4999 28.3 56.4999C26.5 56.4999 25.3 55.2999 25.3 53.6999C25.3 52.0999 26.5 50.8999 28.1 50.8999C29.7 50.8999 30.9 51.9999 30.9 53.6999C30.8 53.7999 30.8 53.8999 30.8 54.0999ZM26.5 53.1999H29.6C29.5001 52.3999 28.9 51.8999 28.1 51.8999C27.2 51.8999 26.6 52.3999 26.5 53.1999Z" fill="#E9E9EE"/>
<path d="M35.2 50.8999V52.0999C35.1 52.0999 35 52.0999 34.9 52.0999C33.9 52.0999 33.3 52.6999 33.3 53.7999V56.4999H32V50.9999H33.2V51.7999C33.6 51.0999 34.3 50.8999 35.2 50.8999Z" fill="#E9E9EE"/>
<path d="M41.3999 54.0999H37.0999C37.2999 54.8999 37.8999 55.3999 38.8999 55.3999C39.4999 55.3999 39.9999 55.1999 40.3999 54.7999L41.0999 55.5999C40.5999 56.1999 39.7999 56.4999 38.8999 56.4999C37.0999 56.4999 35.8999 55.2999 35.8999 53.6999C35.8999 52.0999 37.0999 50.8999 38.6999 50.8999C40.2999 50.8999 41.4999 51.9999 41.4999 53.6999C41.3999 53.7999 41.3999 53.8999 41.3999 54.0999ZM37.0999 53.1999H40.1999C40.0999 52.3999 39.4999 51.8999 38.6999 51.8999C37.7999 51.8999 37.1999 52.3999 37.0999 53.1999Z" fill="#E9E9EE"/>
<path d="M45.5999 49.2H48.6999C50.9999 49.2 52.5999 50.5999 52.5999 52.7999C52.5999 54.9999 50.9999 56.4 48.6999 56.4H45.5999V49.2ZM48.6999 55.2999C50.2999 55.2999 51.2999 54.2999 51.2999 52.7999C51.2999 51.2999 50.2999 50.2999 48.6999 50.2999H46.8999V55.2L48.6999 55.2999Z" fill="#E9E9EE"/>
<path d="M59.0999 54.0999H54.7999C54.9999 54.8999 55.5999 55.3999 56.5999 55.3999C57.1999 55.3999 57.6999 55.1999 58.0999 54.7999L58.7999 55.5999C58.2999 56.1999 57.4999 56.4999 56.5999 56.4999C54.7999 56.4999 53.5999 55.2999 53.5999 53.6999C53.5999 52.0999 54.7999 50.8999 56.3999 50.8999C57.9999 50.8999 59.1999 51.9999 59.1999 53.6999C59.0999 53.7999 59.0999 53.8999 59.0999 54.0999ZM54.7999 53.1999H57.8999C57.7999 52.3999 57.1999 51.8999 56.3999 51.8999C55.4999 51.8999 54.8999 52.3999 54.7999 53.1999Z" fill="#E9E9EE"/>
<path d="M59.7 55.7998L60.2 54.7998C60.7 55.0998 61.3999 55.2998 62.0999 55.2998C62.8999 55.2998 63.2 55.0998 63.2 54.6998C63.2 53.6998 59.7999 54.5998 59.7999 52.4998C59.7999 51.4998 60.7 50.7998 62.2 50.7998C62.9 50.7998 63.8 50.9998 64.3 51.2998L63.7999 52.2998C63.2999 51.9998 62.8 51.8998 62.2 51.8998C61.4 51.8998 61.0999 52.1998 61.0999 52.4998C61.0999 53.5998 64.5 52.5998 64.5 54.7998C64.5 55.7998 63.6 56.4998 62 56.4998C61.1 56.4998 60.2 56.1998 59.7 55.7998Z" fill="#E9E9EE"/>
<path d="M65.3999 49.1999C65.3999 48.7999 65.6999 48.3999 66.1999 48.3999C66.6999 48.3999 66.9999 48.6999 66.9999 49.0999C66.9999 49.5999 66.6999 49.8999 66.1999 49.8999C65.7999 49.9999 65.3999 49.6999 65.3999 49.1999ZM65.5999 50.8999H66.8999V56.3999H65.5999V50.8999Z" fill="#E9E9EE"/>
<path d="M73.9999 50.9V55.5C73.9999 57.5 72.9999 58.4 70.9999 58.4C69.9999 58.4 68.9999 58.0999 68.2999 57.5999L68.8999 56.5999C69.3999 56.9999 70.1999 57.2999 70.8999 57.2999C72.0999 57.2999 72.6999 56.6999 72.6999 55.5999V55.2999C72.1999 55.7999 71.5999 56 70.8999 56C69.2999 56 68.0999 54.8999 68.0999 53.2999C68.0999 51.6999 69.2999 50.7 70.8999 50.7C71.6999 50.7 72.2999 50.9 72.7999 51.5V50.7999L73.9999 50.9ZM72.7999 53.5C72.7999 52.6 72.0999 52 71.0999 52C70.0999 52 69.3999 52.6 69.3999 53.5C69.3999 54.4 70.0999 55.0999 71.0999 55.0999C72.0999 55.0999 72.7999 54.4 72.7999 53.5Z" fill="#E9E9EE"/>
<path d="M81.1 53.2999V56.3999H79.8V53.3999C79.8 52.3999 79.3 51.9999 78.5 51.9999C77.6 51.9999 77 52.5999 77 53.6999V56.4999H75.7V50.9999H76.9V51.6999C77.3 51.1999 78 50.8999 78.8 50.8999C80.1 50.8999 81.1 51.5999 81.1 53.2999Z" fill="#E9E9EE"/>
<path d="M92.3 56.4V51.5999L89.9 55.5H89.3L87 51.7V56.4H85.7V49.2H86.8L89.7 54L92.5 49.2H93.6V56.4H92.3Z" fill="#E9E9EE"/>
<path d="M100.5 54.0999H96.2C96.4 54.8999 97 55.3999 98 55.3999C98.6 55.3999 99.1 55.1999 99.5 54.7999L100.2 55.5999C99.7 56.1999 98.9 56.4999 98 56.4999C96.2 56.4999 95 55.2999 95 53.6999C95 52.0999 96.2 50.8999 97.8 50.8999C99.4 50.8999 100.6 51.9999 100.6 53.6999C100.5 53.7999 100.5 53.8999 100.5 54.0999ZM96.2 53.1999H99.3C99.2 52.3999 98.6 51.8999 97.8 51.8999C96.9 51.8999 96.3 52.3999 96.2 53.1999Z" fill="#E9E9EE"/>
<path d="M106.9 54.0999H102.6C102.8 54.8999 103.4 55.3999 104.4 55.3999C105 55.3999 105.5 55.1999 105.9 54.7999L106.6 55.5999C106.1 56.1999 105.3 56.4999 104.4 56.4999C102.6 56.4999 101.4 55.2999 101.4 53.6999C101.4 52.0999 102.6 50.8999 104.2 50.8999C105.8 50.8999 107 51.9999 107 53.6999C106.9 53.7999 106.9 53.8999 106.9 54.0999ZM102.6 53.1999H105.7C105.6 52.3999 105 51.8999 104.2 51.8999C103.3 51.8999 102.7 52.3999 102.6 53.1999Z" fill="#E9E9EE"/>
<path d="M111.5 56.0999C111.2 56.2999 110.7 56.5 110.3 56.5C109.1 56.5 108.4 55.8999 108.4 54.5999V52H107.5V51H108.4V49.7H109.7V51H111.2V52H109.7V54.5999C109.7 55.0999 110 55.4 110.5 55.4C110.8 55.4 111 55.3 111.2 55.2L111.5 56.0999Z" fill="#E9E9EE"/>
<path d="M111.9 55.7998L112.4 54.7998C112.9 55.0998 113.6 55.2998 114.3 55.2998C115.1 55.2998 115.4 55.0998 115.4 54.6998C115.4 53.6998 112 54.5998 112 52.4998C112 51.4998 112.9 50.7998 114.4 50.7998C115.1 50.7998 116 50.9998 116.5 51.2998L116 52.2998C115.5 51.9998 115 51.8998 114.4 51.8998C113.6 51.8998 113.3 52.1998 113.3 52.4998C113.3 53.5998 116.7 52.5998 116.7 54.7998C116.7 55.7998 115.8 56.4998 114.2 56.4998C113.3 56.4998 112.4 56.1998 111.9 55.7998Z" fill="#E9E9EE"/>
<path d="M120.8 49.2H123.9C126.2 49.2 127.8 50.5999 127.8 52.7999C127.8 54.9999 126.2 56.4 123.9 56.4H120.8V49.2ZM123.8 55.2999C125.4 55.2999 126.4 54.2999 126.4 52.7999C126.4 51.2999 125.4 50.2999 123.8 50.2999H122V55.2L123.8 55.2999Z" fill="#E9E9EE"/>
<path d="M134.2 54.0999H129.9C130.1 54.8999 130.7 55.3999 131.7 55.3999C132.3 55.3999 132.8 55.1999 133.2 54.7999L133.9 55.5999C133.4 56.1999 132.6 56.4999 131.7 56.4999C129.9 56.4999 128.7 55.2999 128.7 53.6999C128.7 52.0999 129.9 50.8999 131.5 50.8999C133.1 50.8999 134.3 51.9999 134.3 53.6999C134.2 53.7999 134.2 53.8999 134.2 54.0999ZM129.8 53.1999H132.9C132.8 52.3999 132.2 51.8999 131.4 51.8999C130.6 51.8999 130.1 52.3999 129.8 53.1999Z" fill="#E9E9EE"/>
<path d="M135.4 48.7998H136.7V56.3998H135.4V48.7998Z" fill="#E9E9EE"/>
<path d="M138.2 49.1999C138.2 48.7999 138.5 48.3999 139 48.3999C139.5 48.3999 139.8 48.6999 139.8 49.0999C139.8 49.5999 139.5 49.8999 139 49.8999C138.6 49.9999 138.2 49.6999 138.2 49.1999ZM138.4 50.8999H139.7V56.3999H138.4V50.8999Z" fill="#E9E9EE"/>
<path d="M146.8 50.9V55.5C146.8 57.5 145.8 58.4 143.8 58.4C142.8 58.4 141.8 58.0999 141.1 57.5999L141.7 56.5999C142.2 56.9999 143 57.2999 143.7 57.2999C144.9 57.2999 145.5 56.6999 145.5 55.5999V55.2999C145 55.7999 144.4 56 143.7 56C142.1 56 140.9 54.8999 140.9 53.2999C140.9 51.6999 142.1 50.7 143.7 50.7C144.5 50.7 145.1 50.9 145.6 51.5V50.7999L146.8 50.9ZM145.6 53.5C145.6 52.6 144.9 52 143.9 52C142.9 52 142.2 52.6 142.2 53.5C142.2 54.4 142.9 55.0999 143.9 55.0999C144.8 55.0999 145.6 54.4 145.6 53.5Z" fill="#E9E9EE"/>
<path d="M153.9 53.2999V56.3999H152.6V53.3999C152.6 52.3999 152.1 51.9999 151.3 51.9999C150.4 51.9999 149.8 52.5999 149.8 53.6999V56.4999H148.5V48.8999H149.8V51.6999C150.2 51.1999 150.9 50.9999 151.6 50.9999C152.9 50.8999 153.9 51.5999 153.9 53.2999Z" fill="#E9E9EE"/>
<path d="M158.8 56.0999C158.5 56.2999 158 56.5 157.6 56.5C156.4 56.5 155.7 55.8999 155.7 54.5999V52H154.8V51H155.7V49.7H157V51H158.5V52H157V54.5999C157 55.0999 157.3 55.4 157.8 55.4C158.1 55.4 158.3 55.3 158.5 55.2L158.8 56.0999Z" fill="#E9E9EE"/>
</svg>
